<svg xmlns="http://www.w3.org/2000/svg" width="25" height="25" viewBox="0 0 25 25" fill="none">
  <path d="M17.6735 5.72074C17.4362 5.72074 17.2042 5.79112 17.0068 5.92298C16.8095 6.05484 16.6557 6.24225 16.5648 6.46152C16.474 6.68079 16.4503 6.92207 16.4966 7.15485C16.5429 7.38763 16.6571 7.60145 16.825 7.76927C16.9928 7.93709 17.2066 8.05138 17.4394 8.09768C17.6722 8.14399 17.9134 8.12022 18.1327 8.0294C18.352 7.93857 18.5394 7.78477 18.6713 7.58743C18.8031 7.39009 18.8735 7.15808 18.8735 6.92074C18.8735 6.60248 18.7471 6.29726 18.522 6.07221C18.297 5.84717 17.9918 5.72074 17.6735 5.72074ZM22.2735 8.14074C22.2539 7.31106 22.0985 6.49019 21.8135 5.71074C21.5604 5.04329 21.1645 4.4392 20.6535 3.94074C20.1583 3.42817 19.5531 3.03492 18.8835 2.79074C18.1062 2.4969 17.2843 2.33795 16.4535 2.32074C15.3935 2.26074 15.0535 2.26074 12.3335 2.26074C9.6135 2.26074 9.2735 2.26074 8.2135 2.32074C7.38265 2.33795 6.56084 2.4969 5.7835 2.79074C5.11548 3.03799 4.51086 3.43083 4.0135 3.94074C3.50092 4.43592 3.10767 5.04118 2.8635 5.71074C2.56966 6.48809 2.41071 7.30989 2.3935 8.14074C2.3335 9.20074 2.3335 9.54074 2.3335 12.2607C2.3335 14.9807 2.3335 15.3207 2.3935 16.3807C2.41071 17.2116 2.56966 18.0334 2.8635 18.8107C3.10767 19.4803 3.50092 20.0856 4.0135 20.5807C4.51086 21.0907 5.11548 21.4835 5.7835 21.7307C6.56084 22.0246 7.38265 22.1835 8.2135 22.2007C9.2735 22.2607 9.6135 22.2607 12.3335 22.2607C15.0535 22.2607 15.3935 22.2607 16.4535 22.2007C17.2843 22.1835 18.1062 22.0246 18.8835 21.7307C19.5531 21.4866 20.1583 21.0933 20.6535 20.5807C21.1657 20.0833 21.5618 19.4789 21.8135 18.8107C22.0985 18.0313 22.2539 17.2104 22.2735 16.3807C22.2735 15.3207 22.3335 14.9807 22.3335 12.2607C22.3335 9.54074 22.3335 9.20074 22.2735 8.14074ZM20.4735 16.2607C20.4664 16.8955 20.3514 17.5245 20.1335 18.1207C19.9738 18.5559 19.7174 18.9492 19.3835 19.2707C19.0589 19.601 18.6666 19.8569 18.2335 20.0207C17.6372 20.2387 17.0083 20.3537 16.3735 20.3607C15.3735 20.4107 15.0035 20.4207 12.3735 20.4207C9.7435 20.4207 9.3735 20.4207 8.3735 20.3607C7.71435 20.3737 7.05795 20.2722 6.4335 20.0607C6.01968 19.8881 5.6454 19.6329 5.3335 19.3107C5.00158 18.9895 4.74834 18.5959 4.5935 18.1607C4.34854 17.5561 4.2131 16.9128 4.1935 16.2607C4.1935 15.2607 4.1335 14.8907 4.1335 12.2607C4.1335 9.63074 4.1335 9.26074 4.1935 8.26074C4.19714 7.61172 4.31564 6.96846 4.5435 6.36074C4.71954 5.93865 4.98976 5.5624 5.3335 5.26074C5.63642 4.91593 6.01213 4.64269 6.4335 4.46074C7.0429 4.24022 7.68544 4.12524 8.3335 4.12074C9.3335 4.12074 9.7035 4.06074 12.3335 4.06074C14.9635 4.06074 15.3335 4.06074 16.3335 4.12074C16.9683 4.12783 17.5972 4.2428 18.1935 4.46074C18.6479 4.62939 19.0558 4.90359 19.3835 5.26074C19.7102 5.56876 19.9661 5.94409 20.1335 6.36074C20.3559 6.96962 20.471 7.6125 20.4735 8.26074C20.5235 9.26074 20.5335 9.63074 20.5335 12.2607C20.5335 14.8907 20.5235 15.2607 20.4735 16.2607ZM12.3335 7.13074C11.3193 7.13272 10.3285 7.43527 9.48615 8.00016C8.64384 8.56505 7.98787 9.36694 7.60113 10.3045C7.21439 11.2421 7.11422 12.2732 7.31329 13.2677C7.51236 14.2621 8.00173 15.1753 8.71957 15.8917C9.43741 16.6082 10.3515 17.0958 11.3464 17.2929C12.3412 17.49 13.3722 17.3878 14.309 16.9993C15.2458 16.6107 16.0464 15.9532 16.6096 15.1098C17.1729 14.2664 17.4735 13.2749 17.4735 12.2607C17.4748 11.5858 17.3427 10.9173 17.0847 10.2937C16.8268 9.67005 16.4481 9.10355 15.9704 8.62679C15.4927 8.15003 14.9254 7.77242 14.3013 7.51567C13.6771 7.25892 13.0084 7.1281 12.3335 7.13074ZM12.3335 15.5907C11.6749 15.5907 11.0311 15.3954 10.4834 15.0295C9.93583 14.6636 9.50902 14.1436 9.25698 13.5351C9.00494 12.9266 8.93899 12.257 9.06748 11.6111C9.19597 10.9651 9.51312 10.3718 9.97883 9.90608C10.4445 9.44037 11.0379 9.12322 11.6838 8.99473C12.3298 8.86624 12.9994 8.93218 13.6078 9.18422C14.2163 9.43626 14.7364 9.86308 15.1023 10.4107C15.4682 10.9583 15.6635 11.6021 15.6635 12.2607C15.6635 12.698 15.5774 13.1311 15.41 13.5351C15.2427 13.9391 14.9974 14.3062 14.6882 14.6154C14.3789 14.9246 14.0118 15.1699 13.6078 15.3373C13.2038 15.5046 12.7708 15.5907 12.3335 15.5907Z" fill="white"/>
</svg>
