<svg xmlns="http://www.w3.org/2000/svg" width="25" height="25" viewBox="0 0 25 25" fill="none">
  <path d="M7.27344 5.26077C7.27317 5.7912 7.0622 6.2998 6.68694 6.67469C6.31168 7.04957 5.80287 7.26003 5.27244 7.25977C4.742 7.2595 4.2334 7.04853 3.85852 6.67327C3.48363 6.29801 3.27317 5.7892 3.27344 5.25877C3.2737 4.72833 3.48467 4.21973 3.85993 3.84485C4.23519 3.46996 4.744 3.2595 5.27444 3.25977C5.80487 3.26003 6.31347 3.471 6.68836 3.84626C7.06324 4.22152 7.2737 4.73033 7.27344 5.26077ZM7.33344 8.74077H3.33344V21.2608H7.33344V8.74077ZM13.6534 8.74077H9.67344V21.2608H13.6134V14.6908C13.6134 11.0308 18.3834 10.6908 18.3834 14.6908V21.2608H22.3334V13.3308C22.3334 7.16077 15.2734 7.39077 13.6134 10.4208L13.6534 8.74077Z" fill="white"/>
</svg>
