<svg xmlns="http://www.w3.org/2000/svg" width="19" height="19" viewBox="0 0 19 19" fill="none">
  <path d="M15.1704 3.94328C14.4827 3.24886 13.6637 2.69826 12.761 2.32355C11.8584 1.94885 10.8902 1.75754 9.91291 1.76078C5.81791 1.76078 2.48041 5.09828 2.48041 9.19328C2.48041 10.5058 2.82541 11.7808 3.47041 12.9058L2.42041 16.7608L6.35791 15.7258C7.44541 16.3183 8.66791 16.6333 9.91291 16.6333C14.0079 16.6333 17.3454 13.2958 17.3454 9.20078C17.3454 7.21328 16.5729 5.34578 15.1704 3.94328ZM9.91291 15.3733C8.80291 15.3733 7.71541 15.0733 6.76291 14.5108L6.53791 14.3758L4.19791 14.9908L4.82041 12.7108L4.67041 12.4783C4.05357 11.4936 3.7261 10.3552 3.72541 9.19328C3.72541 5.78828 6.50041 3.01328 9.90541 3.01328C11.5554 3.01328 13.1079 3.65828 14.2704 4.82828C14.8461 5.40118 15.3024 6.08269 15.6126 6.83328C15.9229 7.58387 16.0811 8.3886 16.0779 9.20078C16.0929 12.6058 13.3179 15.3733 9.91291 15.3733ZM13.3029 10.7533C13.1154 10.6633 12.2004 10.2133 12.0354 10.1458C11.8629 10.0858 11.7429 10.0558 11.6154 10.2358C11.4879 10.4233 11.1354 10.8433 11.0304 10.9633C10.9254 11.0908 10.8129 11.1058 10.6254 11.0083C10.4379 10.9183 9.83791 10.7158 9.13291 10.0858C8.57791 9.59078 8.21041 8.98328 8.09791 8.79578C7.99291 8.60828 8.08291 8.51078 8.18041 8.41328C8.26291 8.33078 8.36791 8.19578 8.45791 8.09078C8.54791 7.98578 8.58541 7.90328 8.64541 7.78328C8.70541 7.65578 8.67541 7.55078 8.63041 7.46078C8.58541 7.37078 8.21041 6.45578 8.06041 6.08078C7.91041 5.72078 7.75291 5.76578 7.64041 5.75828H7.28041C7.15291 5.75828 6.95791 5.80328 6.78541 5.99078C6.62041 6.17828 6.14041 6.62828 6.14041 7.54328C6.14041 8.45828 6.80791 9.34328 6.89791 9.46328C6.98791 9.59078 8.21041 11.4658 10.0704 12.2683C10.5129 12.4633 10.8579 12.5758 11.1279 12.6583C11.5704 12.8008 11.9754 12.7783 12.2979 12.7333C12.6579 12.6808 13.4004 12.2833 13.5504 11.8483C13.7079 11.4133 13.7079 11.0458 13.6554 10.9633C13.6029 10.8808 13.4904 10.8433 13.3029 10.7533Z" fill="#9CAAB7"/>
</svg>
